<svg version="1.1" id="Layer_1" xmlns="http://www.w3.org/2000/svg" xmlns:xlink="http://www.w3.org/1999/xlink" x="0px" y="0px"
	 width="100%" viewBox="0 0 436 349" enable-background="new 0 0 436 349" xml:space="preserve">
<path fill="#FFFFFF" opacity="1.000000" stroke="none" 
	d="
M256.000000,350.000000 
	C170.666687,350.000000 85.833382,350.000000 1.000057,350.000000 
	C1.000038,233.666733 1.000038,117.333450 1.000019,1.000135 
	C146.333237,1.000090 291.666473,1.000090 436.999756,1.000045 
	C436.999847,117.333191 436.999847,233.666382 436.999939,349.999786 
	C376.833344,350.000000 316.666656,350.000000 256.000000,350.000000 
M146.019867,341.652740 
	C146.307144,341.950409 146.594406,342.248077 146.964462,343.243622 
	C151.400879,347.491180 155.057571,347.414368 159.779816,342.793365 
	C172.386307,330.457062 185.033264,318.159698 197.460709,305.644836 
	C200.051392,303.035919 202.460892,301.593994 206.967957,302.941162 
	C225.918579,303.041412 244.869202,303.141693 264.576080,303.607208 
	C273.329132,303.955780 282.152130,303.671997 290.131531,308.460114 
	C292.460022,309.857330 295.330292,310.426086 298.013519,311.146057 
	C318.472473,316.635681 339.338745,316.947357 359.769989,312.634827 
	C406.235260,302.827118 435.547546,265.900482 428.330505,214.598618 
	C423.072784,177.224426 401.570160,151.112488 364.875153,139.117355 
	C357.922302,136.844574 350.570374,135.792572 343.216431,134.135330 
	C342.667114,131.062775 342.179169,127.790718 341.489685,124.561699 
	C335.346405,95.791405 320.538971,72.311363 297.472992,54.249554 
	C284.408234,44.019173 270.200287,35.702221 253.413986,32.811481 
	C248.205597,31.914555 243.102051,30.408665 237.031677,29.017668 
	C227.059738,29.119377 217.087814,29.221087 206.321259,29.263851 
	C199.260666,31.048445 191.936035,32.143921 185.182983,34.731220 
	C145.946640,49.763889 120.416664,77.925659 108.262856,117.870949 
	C106.463409,123.785095 102.624390,124.542213 98.837921,125.591064 
	C93.055336,127.192856 86.719627,126.783035 80.922745,128.351059 
	C68.091209,131.821945 56.576321,138.144714 46.643234,147.009567 
	C21.339529,169.592026 12.186832,198.150284 15.762269,231.375122 
	C18.585857,257.613373 31.249800,278.343628 51.249710,294.909241 
	C67.111275,308.047119 85.972412,313.197723 106.990837,314.937225 
	C119.315834,314.921692 131.640823,314.906189 144.380981,315.014374 
	C144.380981,315.014374 144.813721,315.034363 144.975464,315.956024 
	C144.979919,319.444489 144.869217,322.937836 145.016571,326.420258 
	C145.223572,331.312775 145.622238,336.197174 145.980469,341.016815 
	C145.980469,341.016815 145.901550,341.029205 146.019867,341.652740 
z"/>
<path fill="#FA5997" opacity="1.000000" stroke="none" 
	d="
M237.950516,29.181572 
	C243.102051,30.408665 248.205597,31.914555 253.413986,32.811481 
	C270.200287,35.702221 284.408234,44.019173 297.472992,54.249554 
	C320.538971,72.311363 335.346405,95.791405 341.489685,124.561699 
	C342.179169,127.790718 342.667114,131.062775 343.216431,134.135330 
	C350.570374,135.792572 357.922302,136.844574 364.875153,139.117355 
	C401.570160,151.112488 423.072784,177.224426 428.330505,214.598618 
	C435.547546,265.900482 406.235260,302.827118 359.769989,312.634827 
	C339.338745,316.947357 318.472473,316.635681 298.013519,311.146057 
	C295.330292,310.426086 292.460022,309.857330 290.131531,308.460114 
	C282.152130,303.671997 273.329132,303.955780 264.354004,303.141113 
	C263.594727,302.450836 263.059540,302.035614 262.520142,302.030060 
	C244.175919,301.841187 225.831345,301.681458 207.486481,301.589417 
	C207.007553,301.587006 206.524597,302.384674 206.043518,302.809174 
	C202.460892,301.593994 200.051392,303.035919 197.460709,305.644836 
	C185.033264,318.159698 172.386307,330.457062 159.779816,342.793365 
	C155.057571,347.414368 151.400879,347.491180 146.872864,342.575684 
	C146.488022,341.614868 146.194778,341.322052 145.901550,341.029205 
	C145.901550,341.029205 145.980469,341.016815 145.980591,340.575867 
	C145.987762,333.421478 146.071671,326.706665 145.947327,319.995697 
	C145.916565,318.335480 145.209763,316.687805 144.813721,315.034363 
	C144.813721,315.034363 144.380981,315.014374 143.871399,314.670837 
	C133.990265,314.217590 124.618660,314.035370 115.247131,314.039581 
	C112.188995,314.040955 109.131081,314.528107 106.073059,314.793091 
	C85.972412,313.197723 67.111275,308.047119 51.249710,294.909241 
	C31.249800,278.343628 18.585857,257.613373 15.762269,231.375122 
	C12.186832,198.150284 21.339529,169.592026 46.643234,147.009567 
	C56.576321,138.144714 68.091209,131.821945 80.922745,128.351059 
	C86.719627,126.783035 93.055336,127.192856 98.837921,125.591064 
	C102.624390,124.542213 106.463409,123.785095 108.262856,117.870949 
	C120.416664,77.925659 145.946640,49.763889 185.182983,34.731220 
	C191.936035,32.143921 199.260666,31.048445 207.050262,29.516926 
	C212.924103,29.845407 218.071442,30.054798 223.212997,29.957672 
	C228.128632,29.864813 233.038254,29.453121 237.950516,29.181572 
M320.311401,207.668411 
	C320.217651,227.509262 320.117126,247.350082 320.063812,267.191040 
	C320.062256,267.775635 320.558228,268.361542 320.878357,269.711456 
	C319.268127,278.942169 314.323547,285.874573 304.850525,291.252716 
	C310.459686,291.252716 314.552155,291.430664 318.624481,291.219452 
	C331.024292,290.576385 343.778900,291.384521 355.727631,288.678802 
	C374.358337,284.460022 389.412445,273.707977 398.603607,256.322693 
	C405.233551,243.781952 407.377777,230.377731 404.992218,216.246597 
	C400.523071,189.773209 385.957947,171.528748 361.062805,161.483444 
	C351.093414,157.460739 340.665985,159.432724 330.424896,159.031158 
	C323.705841,158.767685 319.632172,155.187531 319.904114,148.539703 
	C320.590393,131.761459 315.936798,116.347046 307.633575,102.128403 
	C290.000092,71.932465 262.866119,56.267841 228.552155,53.096470 
	C220.294464,52.333275 211.593887,53.724758 203.388092,55.483486 
	C162.977722,64.144516 134.167786,99.757851 128.271729,136.920517 
	C126.875938,145.718170 124.537659,148.069565 115.459663,147.785156 
	C105.035126,147.458557 94.866852,148.406509 85.128510,152.329514 
	C58.027962,163.246765 42.092205,183.551620 38.614513,212.159302 
	C35.437332,238.295029 45.453194,259.813843 66.355949,276.346405 
	C88.588432,293.930695 114.396957,291.700470 140.805435,290.950409 
	C138.573242,289.280487 136.804092,288.131775 135.236008,286.754181 
	C127.532082,279.986420 125.188240,271.493317 125.491882,261.298981 
	C126.006828,244.010727 125.209351,226.687790 125.311928,209.381516 
	C125.401901,194.201431 137.137344,180.728455 151.447449,179.974503 
	C197.370041,179.982849 243.292618,179.999680 289.215179,179.963608 
	C290.795715,179.962357 292.375885,179.431488 294.730499,179.061218 
	C309.344421,181.522629 320.823639,194.476868 320.311401,207.668411 
M258.062805,235.413834 
	C259.437653,245.779633 269.153107,250.845596 277.221313,245.403732 
	C282.235657,242.021652 284.178101,236.484375 282.223846,231.143204 
	C279.946350,224.918564 275.183258,222.138000 268.128418,222.914627 
	C262.460327,223.538589 259.008179,227.542801 258.062805,235.413834 
M212.022705,237.096863 
	C215.370636,246.955734 222.445892,250.430145 230.302628,246.073486 
	C235.434967,243.227570 238.082733,236.739777 236.168030,231.701630 
	C233.693710,225.190994 228.313721,221.957687 221.755585,223.039902 
	C216.400360,223.923615 212.356537,229.414185 212.022705,237.096863 
M187.280930,241.504898 
	C190.299774,235.035126 189.292862,229.053802 184.555298,225.313614 
	C180.383118,222.019836 173.735580,221.804871 169.734650,224.916794 
	C165.988693,227.830414 163.382202,231.584000 164.252762,236.446609 
	C165.147614,241.444992 168.054733,245.516235 173.219589,246.775833 
	C178.519028,248.068268 183.520401,247.196503 187.280930,241.504898 
z"/>
<path fill="#E4457F" opacity="1.000000" stroke="none" 
	d="
M206.505737,302.875183 
	C206.524597,302.384674 207.007553,301.587006 207.486481,301.589417 
	C225.831345,301.681458 244.175919,301.841187 262.520142,302.030060 
	C263.059540,302.035614 263.594727,302.450836 263.975861,302.958496 
	C244.869202,303.141693 225.918579,303.041412 206.505737,302.875183 
z"/>
<path fill="#E24781" opacity="1.000000" stroke="none" 
	d="
M106.531952,314.865173 
	C109.131081,314.528107 112.188995,314.040955 115.247131,314.039581 
	C124.618660,314.035370 133.990265,314.217590 143.663818,314.608978 
	C131.640823,314.906189 119.315834,314.921692 106.531952,314.865173 
z"/>
<path fill="#E8538B" opacity="1.000000" stroke="none" 
	d="
M237.491089,29.099621 
	C233.038254,29.453121 228.128632,29.864813 223.212997,29.957672 
	C218.071442,30.054798 212.924103,29.845407 207.447571,29.546398 
	C217.087814,29.221087 227.059738,29.119377 237.491089,29.099621 
z"/>
<path fill="#E85F94" opacity="1.000000" stroke="none" 
	d="
M144.894592,315.495178 
	C145.209763,316.687805 145.916565,318.335480 145.947327,319.995697 
	C146.071671,326.706665 145.987762,333.421478 145.959808,340.609985 
	C145.622238,336.197174 145.223572,331.312775 145.016571,326.420258 
	C144.869217,322.937836 144.979919,319.444489 144.894592,315.495178 
z"/>
<path fill="#E85F94" opacity="1.000000" stroke="none" 
	d="
M145.960709,341.340973 
	C146.194778,341.322052 146.488022,341.614868 146.831467,342.226746 
	C146.594406,342.248077 146.307144,341.950409 145.960709,341.340973 
z"/>
<path fill="#FFFFFF" opacity="1.000000" stroke="none" 
	d="
M150.425308,179.953171 
	C137.137344,180.728455 125.401901,194.201431 125.311928,209.381516 
	C125.209351,226.687790 126.006828,244.010727 125.491882,261.298981 
	C125.188240,271.493317 127.532082,279.986420 135.236008,286.754181 
	C136.804092,288.131775 138.573242,289.280487 140.805435,290.950409 
	C114.396957,291.700470 88.588432,293.930695 66.355949,276.346405 
	C45.453194,259.813843 35.437332,238.295029 38.614513,212.159302 
	C42.092205,183.551620 58.027962,163.246765 85.128510,152.329514 
	C94.866852,148.406509 105.035126,147.458557 115.459663,147.785156 
	C124.537659,148.069565 126.875938,145.718170 128.271729,136.920517 
	C134.167786,99.757851 162.977722,64.144516 203.388092,55.483486 
	C211.593887,53.724758 220.294464,52.333275 228.552155,53.096470 
	C262.866119,56.267841 290.000092,71.932465 307.633575,102.128403 
	C315.936798,116.347046 320.590393,131.761459 319.904114,148.539703 
	C319.632172,155.187531 323.705841,158.767685 330.424896,159.031158 
	C340.665985,159.432724 351.093414,157.460739 361.062805,161.483444 
	C385.957947,171.528748 400.523071,189.773209 404.992218,216.246597 
	C407.377777,230.377731 405.233551,243.781952 398.603607,256.322693 
	C389.412445,273.707977 374.358337,284.460022 355.727631,288.678802 
	C343.778900,291.384521 331.024292,290.576385 318.624481,291.219452 
	C314.552155,291.430664 310.459686,291.252716 304.850525,291.252716 
	C314.323547,285.874573 319.268127,278.942169 320.919739,268.867554 
	C320.924561,247.698837 320.888000,227.374008 320.851440,207.049194 
	C320.823639,194.476868 309.344421,181.522629 293.879822,179.044144 
	C247.056488,179.018494 201.083847,179.000534 155.111267,179.041412 
	C153.549011,179.042801 151.987289,179.635880 150.425308,179.953171 
z"/>
<path fill="#FEFCFD" opacity="1.000000" stroke="none" 
	d="
M258.061523,235.003296 
	C259.008179,227.542801 262.460327,223.538589 268.128418,222.914627 
	C275.183258,222.138000 279.946350,224.918564 282.223846,231.143204 
	C284.178101,236.484375 282.235657,242.021652 277.221313,245.403732 
	C269.153107,250.845596 259.437653,245.779633 258.061523,235.003296 
z"/>
<path fill="#FEFCFD" opacity="1.000000" stroke="none" 
	d="
M212.012817,236.689301 
	C212.356537,229.414185 216.400360,223.923615 221.755585,223.039902 
	C228.313721,221.957687 233.693710,225.190994 236.168030,231.701630 
	C238.082733,236.739777 235.434967,243.227570 230.302628,246.073486 
	C222.445892,250.430145 215.370636,246.955734 212.012817,236.689301 
z"/>
<path fill="#FFFDFE" opacity="1.000000" stroke="none" 
	d="
M187.101044,241.848648 
	C183.520401,247.196503 178.519028,248.068268 173.219589,246.775833 
	C168.054733,245.516235 165.147614,241.444992 164.252762,236.446609 
	C163.382202,231.584000 165.988693,227.830414 169.734650,224.916794 
	C173.735580,221.804871 180.383118,222.019836 184.555298,225.313614 
	C189.292862,229.053802 190.299774,235.035126 187.101044,241.848648 
z"/>
<path fill="#DA3672" opacity="1.000000" stroke="none" 
	d="
M150.936371,179.963837 
	C151.987289,179.635880 153.549011,179.042801 155.111267,179.041412 
	C201.083847,179.000534 247.056488,179.018494 293.492676,179.087265 
	C292.375885,179.431488 290.795715,179.962357 289.215179,179.963608 
	C243.292618,179.999680 197.370041,179.982849 150.936371,179.963837 
z"/>
<path fill="#DE3D79" opacity="1.000000" stroke="none" 
	d="
M320.581421,207.358795 
	C320.888000,227.374008 320.924561,247.698837 320.891663,268.485229 
	C320.558228,268.361542 320.062256,267.775635 320.063812,267.191040 
	C320.117126,247.350082 320.217651,227.509262 320.581421,207.358795 
z"/>
</svg>